<?xml version="1.0" encoding="UTF-8" standalone="no"?><svg xmlns="http://www.w3.org/2000/svg" xmlns:xlink="http://www.w3.org/1999/xlink" contentScriptType="application/ecmascript" contentStyleType="text/css" height="442px" preserveAspectRatio="none" style="width:407px;height:442px;" version="1.1" viewBox="0 0 407 442" width="407px" zoomAndPan="magnify"><defs><filter height="300%" id="f1ag1xbd579z6d" width="300%" x="-1" y="-1"><feGaussianBlur result="blurOut" stdDeviation="2.0"/><feColorMatrix in="blurOut" result="blurOut2" type="matrix" values="0 0 0 0 0 0 0 0 0 0 0 0 0 0 0 0 0 0 .4 0"/><feOffset dx="4.0" dy="4.0" in="blurOut2" result="blurOut3"/><feBlend in="SourceGraphic" in2="blurOut3" mode="normal"/></filter></defs><g><!--class FortunePresenter--><rect fill="#FEFECE" filter="url(#f1ag1xbd579z6d)" height="60.9551" id="FortunePresenter" style="stroke: #A80036; stroke-width: 1.5;" width="130" x="202.5" y="250"/><ellipse cx="217.5" cy="266" fill="#ADD1B2" rx="11" ry="11" style="stroke: #A80036; stroke-width: 1.0;"/><path d="M219.9731,272.1431 Q219.3921,272.4419 218.7529,272.5913 Q218.1138,272.7407 217.4082,272.7407 Q214.9014,272.7407 213.5815,271.0889 Q212.2617,269.437 212.2617,266.3159 Q212.2617,263.1865 213.5815,261.5347 Q214.9014,259.8828 217.4082,259.8828 Q218.1138,259.8828 218.7612,260.0322 Q219.4087,260.1816 219.9731,260.4805 L219.9731,263.2031 Q219.3423,262.6221 218.7488,262.3523 Q218.1553,262.0825 217.5244,262.0825 Q216.1797,262.0825 215.4949,263.1492 Q214.8101,264.2158 214.8101,266.3159 Q214.8101,268.4077 215.4949,269.4744 Q216.1797,270.541 217.5244,270.541 Q218.1553,270.541 218.7488,270.2712 Q219.3423,270.0015 219.9731,269.4204 Z "/><text fill="#000000" font-family="sans-serif" font-size="12" lengthAdjust="spacingAndGlyphs" textLength="98" x="231.5" y="270.5352">FortunePresenter</text><line style="stroke: #A80036; stroke-width: 1.5;" x1="203.5" x2="331.5" y1="282" y2="282"/><line style="stroke: #A80036; stroke-width: 1.5;" x1="203.5" x2="331.5" y1="290" y2="290"/><text fill="#000000" font-family="sans-serif" font-size="11" lengthAdjust="spacingAndGlyphs" textLength="92" x="208.5" y="304.6348">loadQuote(): Unit</text><!--class FortuneView--><rect fill="#FEFECE" filter="url(#f1ag1xbd579z6d)" height="73.9102" id="FortuneView" style="stroke: #A80036; stroke-width: 1.5;" width="173" x="181" y="116"/><ellipse cx="228.25" cy="132" fill="#B4A7E5" rx="11" ry="11" style="stroke: #A80036; stroke-width: 1.0;"/><path d="M224.6777,128.2651 L224.6777,126.1069 L232.0571,126.1069 L232.0571,128.2651 L229.5918,128.2651 L229.5918,136.3418 L232.0571,136.3418 L232.0571,138.5 L224.6777,138.5 L224.6777,136.3418 L227.1431,136.3418 L227.1431,128.2651 Z "/><text fill="#000000" font-family="sans-serif" font-size="12" font-style="italic" lengthAdjust="spacingAndGlyphs" textLength="70" x="248.75" y="136.5352">FortuneView</text><line style="stroke: #A80036; stroke-width: 1.5;" x1="182" x2="353" y1="148" y2="148"/><line style="stroke: #A80036; stroke-width: 1.5;" x1="182" x2="353" y1="156" y2="156"/><text fill="#000000" font-family="sans-serif" font-size="11" lengthAdjust="spacingAndGlyphs" textLength="161" x="187" y="170.6348">showLoading(visible: Boolean)</text><text fill="#000000" font-family="sans-serif" font-size="11" lengthAdjust="spacingAndGlyphs" textLength="147" x="187" y="183.5898">displayFortune(text: String)</text><!--class FortuneRepository--><rect fill="#FEFECE" filter="url(#f1ag1xbd579z6d)" height="60.9551" id="FortuneRepository" style="stroke: #A80036; stroke-width: 1.5;" width="241" x="56" y="371"/><ellipse cx="120.25" cy="387" fill="#B4A7E5" rx="11" ry="11" style="stroke: #A80036; stroke-width: 1.0;"/><path d="M116.6777,383.2651 L116.6777,381.1069 L124.0571,381.1069 L124.0571,383.2651 L121.5918,383.2651 L121.5918,391.3418 L124.0571,391.3418 L124.0571,393.5 L116.6777,393.5 L116.6777,391.3418 L119.1431,391.3418 L119.1431,383.2651 Z "/><text fill="#000000" font-family="sans-serif" font-size="12" font-style="italic" lengthAdjust="spacingAndGlyphs" textLength="104" x="140.75" y="391.5352">FortuneRepository</text><line style="stroke: #A80036; stroke-width: 1.5;" x1="57" x2="296" y1="403" y2="403"/><line style="stroke: #A80036; stroke-width: 1.5;" x1="57" x2="296" y1="411" y2="411"/><text fill="#000000" font-family="sans-serif" font-size="11" lengthAdjust="spacingAndGlyphs" textLength="229" x="62" y="425.6348">suspend fun getRandomFortune(): Fortune</text><!--class MainActivity--><rect fill="#FEFECE" filter="url(#f1ag1xbd579z6d)" height="48" id="MainActivity" style="stroke: #A80036; stroke-width: 1.5;" width="99" x="147" y="8"/><ellipse cx="162" cy="24" fill="#ADD1B2" rx="11" ry="11" style="stroke: #A80036; stroke-width: 1.0;"/><path d="M164.4731,30.1431 Q163.8921,30.4419 163.2529,30.5913 Q162.6138,30.7407 161.9082,30.7407 Q159.4014,30.7407 158.0815,29.0889 Q156.7617,27.437 156.7617,24.3159 Q156.7617,21.1865 158.0815,19.5347 Q159.4014,17.8828 161.9082,17.8828 Q162.6138,17.8828 163.2612,18.0322 Q163.9087,18.1816 164.4731,18.4805 L164.4731,21.2031 Q163.8423,20.6221 163.2488,20.3523 Q162.6553,20.0825 162.0244,20.0825 Q160.6797,20.0825 159.9949,21.1492 Q159.3101,22.2158 159.3101,24.3159 Q159.3101,26.4077 159.9949,27.4744 Q160.6797,28.541 162.0244,28.541 Q162.6553,28.541 163.2488,28.2712 Q163.8423,28.0015 164.4731,27.4204 Z "/><text fill="#000000" font-family="sans-serif" font-size="12" lengthAdjust="spacingAndGlyphs" textLength="67" x="176" y="28.5352">MainActivity</text><line style="stroke: #A80036; stroke-width: 1.5;" x1="148" x2="245" y1="40" y2="40"/><line style="stroke: #A80036; stroke-width: 1.5;" x1="148" x2="245" y1="48" y2="48"/><!--class ViewController--><rect fill="#FEFECE" filter="url(#f1ag1xbd579z6d)" height="48" id="ViewController" style="stroke: #A80036; stroke-width: 1.5;" width="115" x="281" y="8"/><ellipse cx="296" cy="24" fill="#ADD1B2" rx="11" ry="11" style="stroke: #A80036; stroke-width: 1.0;"/><path d="M298.4731,30.1431 Q297.8921,30.4419 297.2529,30.5913 Q296.6138,30.7407 295.9082,30.7407 Q293.4014,30.7407 292.0815,29.0889 Q290.7617,27.437 290.7617,24.3159 Q290.7617,21.1865 292.0815,19.5347 Q293.4014,17.8828 295.9082,17.8828 Q296.6138,17.8828 297.2612,18.0322 Q297.9087,18.1816 298.4731,18.4805 L298.4731,21.2031 Q297.8423,20.6221 297.2488,20.3523 Q296.6553,20.0825 296.0244,20.0825 Q294.6797,20.0825 293.9949,21.1492 Q293.3101,22.2158 293.3101,24.3159 Q293.3101,26.4077 293.9949,27.4744 Q294.6797,28.541 296.0244,28.541 Q296.6553,28.541 297.2488,28.2712 Q297.8423,28.0015 298.4731,27.4204 Z "/><text fill="#000000" font-family="sans-serif" font-size="12" lengthAdjust="spacingAndGlyphs" textLength="83" x="310" y="28.5352">ViewController</text><line style="stroke: #A80036; stroke-width: 1.5;" x1="282" x2="395" y1="40" y2="40"/><line style="stroke: #A80036; stroke-width: 1.5;" x1="282" x2="395" y1="48" y2="48"/><!--class FortuneRepositoryImpl--><rect fill="#FEFECE" filter="url(#f1ag1xbd579z6d)" height="48" id="FortuneRepositoryImpl" style="stroke: #A80036; stroke-width: 1.5;" width="161" x="6" y="256.5"/><ellipse cx="21" cy="272.5" fill="#ADD1B2" rx="11" ry="11" style="stroke: #A80036; stroke-width: 1.0;"/><path d="M23.4731,278.6431 Q22.8921,278.9419 22.2529,279.0913 Q21.6138,279.2407 20.9082,279.2407 Q18.4014,279.2407 17.0815,277.5889 Q15.7617,275.937 15.7617,272.8159 Q15.7617,269.6865 17.0815,268.0347 Q18.4014,266.3828 20.9082,266.3828 Q21.6138,266.3828 22.2612,266.5322 Q22.9087,266.6816 23.4731,266.9805 L23.4731,269.7031 Q22.8423,269.1221 22.2488,268.8523 Q21.6553,268.5825 21.0244,268.5825 Q19.6797,268.5825 18.9949,269.6492 Q18.3101,270.7158 18.3101,272.8159 Q18.3101,274.9077 18.9949,275.9744 Q19.6797,277.041 21.0244,277.041 Q21.6553,277.041 22.2488,276.7712 Q22.8423,276.5015 23.4731,275.9204 Z "/><text fill="#000000" font-family="sans-serif" font-size="12" lengthAdjust="spacingAndGlyphs" textLength="129" x="35" y="277.0352">FortuneRepositoryImpl</text><line style="stroke: #A80036; stroke-width: 1.5;" x1="7" x2="166" y1="288.5" y2="288.5"/><line style="stroke: #A80036; stroke-width: 1.5;" x1="7" x2="166" y1="296.5" y2="296.5"/><!--link FortuneView to FortunePresenter--><path d="M255.3923,195.6479 C254.2726,213.4126 254.6168,233.6413 256.4249,249.8909 " fill="none" id="FortuneView-FortunePresenter" style="stroke: #A80036; stroke-width: 1.0;"/><polygon fill="#A80036" points="255.7868,190.221,251.1447,198.9073,255.4242,195.2078,259.1236,199.4874,255.7868,190.221" style="stroke: #A80036; stroke-width: 1.0;"/><!--link FortuneView to FortunePresenter--><path d="M279.9023,190.221 C281.4084,207.4069 281.3647,227.7234 279.7709,244.7273 " fill="none" id="FortuneView-FortunePresenter" style="stroke: #A80036; stroke-width: 1.0;"/><polygon fill="#A80036" points="279.2266,249.8909,284.1483,241.3599,279.7509,244.9185,276.1924,240.5211,279.2266,249.8909" style="stroke: #A80036; stroke-width: 1.0;"/><!--link FortunePresenter to FortuneRepository--><path d="M244.5369,311.0334 C231.8197,327.9431 215.96,349.0312 202.7529,366.5923 " fill="none" id="FortunePresenter-FortuneRepository" style="stroke: #A80036; stroke-width: 1.0;"/><polygon fill="#A80036" points="199.4558,370.9764,208.0623,366.188,202.4612,366.9804,201.6687,361.3794,199.4558,370.9764" style="stroke: #A80036; stroke-width: 1.0;"/><!--link FortuneRepositoryImpl to FortuneRepository--><path d="M104.4965,304.6953 C115.1704,319.0458 129.0608,337.7207 141.7904,354.8349 " fill="none" id="FortuneRepositoryImpl-FortuneRepository" style="stroke: #A80036; stroke-width: 1.0;"/><polygon fill="none" points="147.4133,350.6655,153.7329,370.8909,136.1799,359.0209,147.4133,350.6655" style="stroke: #A80036; stroke-width: 1.0;"/><!--link MainActivity to FortuneView--><path d="M210.6973,56.1953 C217.8323,68.355 226.7892,83.6195 235.467,98.4086 " fill="none" id="MainActivity-FortuneView" style="stroke: #A80036; stroke-width: 1.0;"/><polygon fill="none" points="241.6882,95.1793,245.7726,115.9716,229.6134,102.2645,241.6882,95.1793" style="stroke: #A80036; stroke-width: 1.0;"/><!--link ViewController to FortuneView--><path d="M324.3027,56.1953 C317.1677,68.355 308.2108,83.6195 299.533,98.4086 " fill="none" id="ViewController-FortuneView" style="stroke: #A80036; stroke-width: 1.0;"/><polygon fill="none" points="305.3866,102.2645,289.2274,115.9716,293.3118,95.1793,305.3866,102.2645" style="stroke: #A80036; stroke-width: 1.0;"/><!--
@startuml
class FortunePresenter {
    loadQuote(): Unit
}

interface FortuneView {
    showLoading(visible: Boolean)
    displayFortune(text: String)
}

interface FortuneRepository {
    suspend fun getRandomFortune(): Fortune
}

class MainActivity
class ViewController
class FortuneRepositoryImpl

FortuneView <- - FortunePresenter
FortuneView - -> FortunePresenter
FortunePresenter - -> FortuneRepository
FortuneRepositoryImpl - -|> FortuneRepository


MainActivity - -|> FortuneView
ViewController - -|> FortuneView

@enduml

PlantUML version 1.2018.13(Mon Nov 26 18:11:51 CET 2018)
(GPL source distribution)
Java Runtime: Java(TM) SE Runtime Environment
JVM: Java HotSpot(TM) 64-Bit Server VM
Java Version: 1.8.0_121-b13
Operating System: Mac OS X
OS Version: 10.14.1
Default Encoding: UTF-8
Language: fr
Country: FR
--></g></svg>